<?xml version="1.0" encoding="utf-8"?>
<!-- Generator: Adobe Illustrator 22.1.0, SVG Export Plug-In . SVG Version: 6.00 Build 0)  -->
<svg version="1.1" id="Layer_1" xmlns="http://www.w3.org/2000/svg" xmlns:xlink="http://www.w3.org/1999/xlink" x="0px" y="0px"
	 viewBox="0 0 1052 1052" style="enable-background:new 0 0 1052 1052;" xml:space="preserve">
<style type="text/css">
	.st0{fill:#FFFFFF;}
</style>
<g transform="translate(0.000000,1052.000000) scale(0.100000,-0.100000)">
	<path class="st0" d="M7690.9,8936.8c-567.6-45-1043.5-249.2-1397.9-600.6c-364.9-361.9-539-803.3-539-1363.4
		c0-837.8,343.8-1423.4,1111.1-1887.4c195.2-117.1,461-244.7,920.4-442.9c626.1-268.8,858.9-396.4,1007.5-555.6
		c183.2-196.7,234.2-510.5,118.6-750.8c-22.5-46.5-81.1-124.6-133.6-177.2c-177.2-178.7-456.5-273.3-803.3-273.3
		c-585.6,0-1022.5,240.2-1373.9,759.8c-48,69.1-91.6,126.1-97.6,126.1c-13.5,0-1156.2-659.2-1180.2-681.7c-15-13.5-3-45,55.6-141.1
		c456.5-768.8,1169.7-1219.2,2133.6-1348.3c252.3-34.5,725.2-33,967,0c606.6,85.6,1061.6,286.8,1414.4,629.1
		c375.4,361.9,560.1,830.3,560.1,1417.4c0,375.4-61.6,668.2-201.2,958c-96.1,198.2-192.2,331.8-357.4,500
		c-316.8,321.3-726.7,564.6-1545,915.9c-618.6,265.8-825.8,379.9-962.5,525.5c-130.6,139.6-186.2,303.3-174.2,507.5
		c10.5,162.2,55.6,271.8,154.7,378.4c142.6,154.7,307.8,219.2,563.1,217.7c289.8,0,477.5-75.1,668.2-267.3
		c67.6-66.1,154.7-172.7,195.2-237.2c46.5-73.6,81.1-114.1,93.1-109.6c39,16.5,1130.6,722.2,1130.6,732.7c0,6-55.6,93.1-123.1,195.2
		c-144.1,216.2-403.9,486.5-582.6,605.1c-330.3,219.2-683.2,331.8-1148.6,366.4C7935.7,8953.3,7905.6,8953.3,7690.9,8936.8z"/>
	<path class="st0" d="M3016.8,6208.5l-4.5-2654.7l-33-124.6c-43.5-163.7-94.6-261.3-184.7-351.4
		c-126.1-126.1-288.3-178.7-558.6-180.2c-385.9-1.5-617.1,162.2-885.9,621.6c-43.5,72.1-82.6,130.6-87.1,129.1
		c-6-3-277.8-166.7-603.6-363.4L66.3,2924.8l45-90.1c268.8-536,734.2-941.4,1294.3-1127.6c591.6-196.7,1351.3-178.7,1908.4,45
		c668.2,270.3,1060.1,828.8,1163.7,1659.2c9,84.1,15,1022.5,15,2788.3v2662.2H3757h-734.2L3016.8,6208.5z"/>
</g>
</svg>
